<svg width="48" height="48" viewBox="0 0 48 48" fill="none" xmlns="http://www.w3.org/2000/svg">
<path d="M18.4222 32.8444C21.661 32.8444 24.6402 31.7638 27.0477 29.961L41.0857 44L44 41.0857L29.961 27.0477C31.7638 24.6402 32.8444 21.661 32.8444 18.4222C32.8444 10.457 26.3874 4 18.4222 4C10.457 4 4 10.457 4 18.4222C4 26.3874 10.457 32.8444 18.4222 32.8444ZM18.4222 8.12063C24.1025 8.12063 28.7238 12.7419 28.7238 18.4222C28.7238 24.1025 24.1025 28.7238 18.4222 28.7238C12.7419 28.7238 8.12063 24.1025 8.12063 18.4222C8.12063 12.7419 12.7419 8.12063 18.4222 8.12063Z" fill="white"/>
</svg>
