<svg width="48" height="48" viewBox="0 0 48 48" fill="none" xmlns="http://www.w3.org/2000/svg">
<path d="M9.706 37.027C12.069 36.442 14.504 35.784 16.251 35.784C16.934 35.784 17.512 35.885 17.939 36.129C19.413 36.974 20.257 40.397 21.184 43.631C22.421 43.866 23.694 44 25 44C26.306 44 27.579 43.866 28.816 43.632C29.742 40.398 30.587 36.975 32.06 36.131C32.487 35.886 33.065 35.786 33.748 35.786C35.495 35.786 37.931 36.444 40.293 37.029C41.898 35.181 43.158 33.039 43.999 30.696C41.655 28.29 39.127 25.805 39.127 24.002C39.127 22.198 41.655 19.714 43.999 17.308C43.158 14.965 41.898 12.823 40.293 10.975C37.93 11.56 35.495 12.218 33.748 12.218C33.065 12.218 32.487 12.117 32.06 11.873C30.586 11.028 29.742 7.605 28.815 4.371C27.579 4.134 26.306 4 25 4C23.694 4 22.421 4.134 21.184 4.368C20.258 7.602 19.413 11.025 17.939 11.869C17.512 12.114 16.934 12.214 16.251 12.214C14.504 12.214 12.068 11.556 9.706 10.971C8.101 12.821 6.841 14.962 6 17.306C8.344 19.712 10.872 22.196 10.872 24C10.872 25.804 8.345 28.288 6 30.694C6.841 33.037 8.101 35.179 9.706 37.027ZM19 24C19 20.686 21.686 18 25 18C28.314 18 31 20.686 31 24C31 27.314 28.314 30 25 30C21.686 30 19 27.314 19 24Z" fill="black"/>
</svg>
