<svg width="48" height="48" viewBox="0 0 48 48" fill="none" xmlns="http://www.w3.org/2000/svg">
<path d="M36 20C39.314 20 42 17.314 42 14C42 10.686 39.314 8 36 8C32.793 8 30.181 10.518 30.016 13.684L16.208 19.725C15.125 18.659 13.64 18 12 18C8.686 18 6 20.686 6 24C6 27.314 8.686 30 12 30C13.641 30 15.126 29.34 16.209 28.273L30.016 34.314C30.185 37.477 32.795 39.991 36 39.991C39.314 39.991 42 37.305 42 33.991C42 30.677 39.314 27.991 36 27.991C34.012 27.991 32.256 28.962 31.164 30.45L17.96 24.674C17.985 24.452 18 24.228 18 24C18 23.771 17.984 23.547 17.96 23.325L31.168 17.546C32.26 19.032 34.015 20 36 20Z" fill="black"/>
</svg>
